<mxfile host="app.diagrams.net" modified="2023-10-19T17:31:54.897Z" agent="Mozilla/5.0 (Windows NT 10.0; Win64; x64) AppleWebKit/537.36 (KHTML, like Gecko) Chrome/118.0.0.0 Safari/537.36" etag="nM0qnUtD1oZITfFzxq5e" version="22.0.5" type="google">
  <diagram name="Page-1" id="yHMA3e8b9Odptbjq3frF">
    <mxGraphModel grid="0" page="1" gridSize="10" guides="1" tooltips="1" connect="1" arrows="1" fold="1" pageScale="1" pageWidth="850" pageHeight="1100" math="0" shadow="0">
      <root>
        <mxCell id="0" />
        <mxCell id="1" parent="0" />
        <mxCell id="iKW5VyOFSuOl_WJNjsYP-1" value="" style="rounded=0;whiteSpace=wrap;html=1;" vertex="1" parent="1">
          <mxGeometry x="34" y="49" width="804" height="669" as="geometry" />
        </mxCell>
        <mxCell id="iKW5VyOFSuOl_WJNjsYP-2" value="User" style="shape=umlLifeline;perimeter=lifelinePerimeter;whiteSpace=wrap;html=1;container=0;dropTarget=0;collapsible=0;recursiveResize=0;outlineConnect=0;portConstraint=eastwest;newEdgeStyle={&quot;edgeStyle&quot;:&quot;elbowEdgeStyle&quot;,&quot;elbow&quot;:&quot;vertical&quot;,&quot;curved&quot;:0,&quot;rounded&quot;:0};" vertex="1" parent="1">
          <mxGeometry x="88" y="137.5" width="100" height="560" as="geometry" />
        </mxCell>
        <mxCell id="iKW5VyOFSuOl_WJNjsYP-3" value="" style="html=1;points=[];perimeter=orthogonalPerimeter;outlineConnect=0;targetShapes=umlLifeline;portConstraint=eastwest;newEdgeStyle={&quot;edgeStyle&quot;:&quot;elbowEdgeStyle&quot;,&quot;elbow&quot;:&quot;vertical&quot;,&quot;curved&quot;:0,&quot;rounded&quot;:0};" vertex="1" parent="iKW5VyOFSuOl_WJNjsYP-2">
          <mxGeometry x="45" y="50" width="10" height="470" as="geometry" />
        </mxCell>
        <mxCell id="iKW5VyOFSuOl_WJNjsYP-4" value="" style="html=1;points=[];perimeter=orthogonalPerimeter;outlineConnect=0;targetShapes=umlLifeline;portConstraint=eastwest;newEdgeStyle={&quot;edgeStyle&quot;:&quot;elbowEdgeStyle&quot;,&quot;elbow&quot;:&quot;vertical&quot;,&quot;curved&quot;:0,&quot;rounded&quot;:0};" vertex="1" parent="iKW5VyOFSuOl_WJNjsYP-2">
          <mxGeometry x="50" y="70" width="10" height="170" as="geometry" />
        </mxCell>
        <mxCell id="iKW5VyOFSuOl_WJNjsYP-5" value="Software" style="shape=umlLifeline;perimeter=lifelinePerimeter;whiteSpace=wrap;html=1;container=0;dropTarget=0;collapsible=0;recursiveResize=0;outlineConnect=0;portConstraint=eastwest;newEdgeStyle={&quot;edgeStyle&quot;:&quot;elbowEdgeStyle&quot;,&quot;elbow&quot;:&quot;vertical&quot;,&quot;curved&quot;:0,&quot;rounded&quot;:0};" vertex="1" parent="1">
          <mxGeometry x="208" y="137.5" width="100" height="560" as="geometry" />
        </mxCell>
        <mxCell id="iKW5VyOFSuOl_WJNjsYP-6" value="" style="html=1;points=[];perimeter=orthogonalPerimeter;outlineConnect=0;targetShapes=umlLifeline;portConstraint=eastwest;newEdgeStyle={&quot;edgeStyle&quot;:&quot;elbowEdgeStyle&quot;,&quot;elbow&quot;:&quot;vertical&quot;,&quot;curved&quot;:0,&quot;rounded&quot;:0};" vertex="1" parent="iKW5VyOFSuOl_WJNjsYP-5">
          <mxGeometry x="45" y="70" width="10" height="430" as="geometry" />
        </mxCell>
        <mxCell id="iKW5VyOFSuOl_WJNjsYP-7" style="edgeStyle=elbowEdgeStyle;rounded=0;orthogonalLoop=1;jettySize=auto;html=1;elbow=vertical;curved=0;" edge="1" parent="iKW5VyOFSuOl_WJNjsYP-5" source="iKW5VyOFSuOl_WJNjsYP-8" target="iKW5VyOFSuOl_WJNjsYP-5">
          <mxGeometry relative="1" as="geometry" />
        </mxCell>
        <mxCell id="iKW5VyOFSuOl_WJNjsYP-8" value="" style="html=1;points=[];perimeter=orthogonalPerimeter;outlineConnect=0;targetShapes=umlLifeline;portConstraint=eastwest;newEdgeStyle={&quot;edgeStyle&quot;:&quot;elbowEdgeStyle&quot;,&quot;elbow&quot;:&quot;vertical&quot;,&quot;curved&quot;:0,&quot;rounded&quot;:0};" vertex="1" parent="iKW5VyOFSuOl_WJNjsYP-5">
          <mxGeometry x="50" y="110" width="10" height="130" as="geometry" />
        </mxCell>
        <mxCell id="iKW5VyOFSuOl_WJNjsYP-9" value="Request Access" style="html=1;verticalAlign=bottom;endArrow=block;edgeStyle=elbowEdgeStyle;elbow=vertical;curved=0;rounded=0;" edge="1" parent="1" target="iKW5VyOFSuOl_WJNjsYP-6">
          <mxGeometry relative="1" as="geometry">
            <mxPoint x="148" y="217.5" as="sourcePoint" />
            <Array as="points">
              <mxPoint x="188" y="217.5" />
            </Array>
          </mxGeometry>
        </mxCell>
        <mxCell id="iKW5VyOFSuOl_WJNjsYP-10" value="Request login&lt;br&gt;&amp;nbsp;Credentials" style="html=1;verticalAlign=bottom;endArrow=block;edgeStyle=elbowEdgeStyle;elbow=vertical;curved=0;rounded=0;dashed=1;" edge="1" parent="1">
          <mxGeometry relative="1" as="geometry">
            <mxPoint x="258" y="262.5" as="sourcePoint" />
            <Array as="points">
              <mxPoint x="198" y="262.5" />
            </Array>
            <mxPoint x="148" y="262.5" as="targetPoint" />
          </mxGeometry>
        </mxCell>
        <mxCell id="iKW5VyOFSuOl_WJNjsYP-11" value="Enter Login in &lt;br&gt;Credentials" style="html=1;verticalAlign=bottom;endArrow=open;endSize=8;edgeStyle=elbowEdgeStyle;elbow=vertical;curved=0;rounded=0;" edge="1" parent="1" source="iKW5VyOFSuOl_WJNjsYP-4">
          <mxGeometry relative="1" as="geometry">
            <mxPoint x="258" y="304.5" as="targetPoint" />
            <Array as="points">
              <mxPoint x="188" y="304.5" />
            </Array>
            <mxPoint x="158" y="304.5" as="sourcePoint" />
          </mxGeometry>
        </mxCell>
        <mxCell id="iKW5VyOFSuOl_WJNjsYP-12" value="Sensors" style="shape=umlLifeline;perimeter=lifelinePerimeter;whiteSpace=wrap;html=1;container=0;dropTarget=0;collapsible=0;recursiveResize=0;outlineConnect=0;portConstraint=eastwest;newEdgeStyle={&quot;edgeStyle&quot;:&quot;elbowEdgeStyle&quot;,&quot;elbow&quot;:&quot;vertical&quot;,&quot;curved&quot;:0,&quot;rounded&quot;:0};" vertex="1" parent="1">
          <mxGeometry x="696" y="137.5" width="100" height="560" as="geometry" />
        </mxCell>
        <mxCell id="iKW5VyOFSuOl_WJNjsYP-13" style="edgeStyle=elbowEdgeStyle;rounded=0;orthogonalLoop=1;jettySize=auto;html=1;elbow=vertical;curved=0;" edge="1" parent="iKW5VyOFSuOl_WJNjsYP-12" source="iKW5VyOFSuOl_WJNjsYP-14" target="iKW5VyOFSuOl_WJNjsYP-12">
          <mxGeometry relative="1" as="geometry" />
        </mxCell>
        <mxCell id="iKW5VyOFSuOl_WJNjsYP-14" value="" style="html=1;points=[];perimeter=orthogonalPerimeter;outlineConnect=0;targetShapes=umlLifeline;portConstraint=eastwest;newEdgeStyle={&quot;edgeStyle&quot;:&quot;elbowEdgeStyle&quot;,&quot;elbow&quot;:&quot;vertical&quot;,&quot;curved&quot;:0,&quot;rounded&quot;:0};" vertex="1" parent="iKW5VyOFSuOl_WJNjsYP-12">
          <mxGeometry x="45" y="70" width="10" height="182" as="geometry" />
        </mxCell>
        <mxCell id="iKW5VyOFSuOl_WJNjsYP-15" value="Database" style="shape=umlLifeline;perimeter=lifelinePerimeter;whiteSpace=wrap;html=1;container=0;dropTarget=0;collapsible=0;recursiveResize=0;outlineConnect=0;portConstraint=eastwest;newEdgeStyle={&quot;edgeStyle&quot;:&quot;elbowEdgeStyle&quot;,&quot;elbow&quot;:&quot;vertical&quot;,&quot;curved&quot;:0,&quot;rounded&quot;:0};" vertex="1" parent="1">
          <mxGeometry x="349" y="137.5" width="100" height="560" as="geometry" />
        </mxCell>
        <mxCell id="iKW5VyOFSuOl_WJNjsYP-16" value="" style="html=1;points=[];perimeter=orthogonalPerimeter;outlineConnect=0;targetShapes=umlLifeline;portConstraint=eastwest;newEdgeStyle={&quot;edgeStyle&quot;:&quot;elbowEdgeStyle&quot;,&quot;elbow&quot;:&quot;vertical&quot;,&quot;curved&quot;:0,&quot;rounded&quot;:0};" vertex="1" parent="iKW5VyOFSuOl_WJNjsYP-15">
          <mxGeometry x="45" y="161" width="10" height="339" as="geometry" />
        </mxCell>
        <mxCell id="iKW5VyOFSuOl_WJNjsYP-17" value="Soil Analyzer" style="shape=umlLifeline;perimeter=lifelinePerimeter;whiteSpace=wrap;html=1;container=0;dropTarget=0;collapsible=0;recursiveResize=0;outlineConnect=0;portConstraint=eastwest;newEdgeStyle={&quot;edgeStyle&quot;:&quot;elbowEdgeStyle&quot;,&quot;elbow&quot;:&quot;vertical&quot;,&quot;curved&quot;:0,&quot;rounded&quot;:0};" vertex="1" parent="1">
          <mxGeometry x="473" y="139" width="100" height="560" as="geometry" />
        </mxCell>
        <mxCell id="iKW5VyOFSuOl_WJNjsYP-18" value="" style="html=1;points=[];perimeter=orthogonalPerimeter;outlineConnect=0;targetShapes=umlLifeline;portConstraint=eastwest;newEdgeStyle={&quot;edgeStyle&quot;:&quot;elbowEdgeStyle&quot;,&quot;elbow&quot;:&quot;vertical&quot;,&quot;curved&quot;:0,&quot;rounded&quot;:0};" vertex="1" parent="iKW5VyOFSuOl_WJNjsYP-17">
          <mxGeometry x="45" y="209.5" width="10" height="176.5" as="geometry" />
        </mxCell>
        <mxCell id="iKW5VyOFSuOl_WJNjsYP-19" value="Hardware" style="shape=umlLifeline;perimeter=lifelinePerimeter;whiteSpace=wrap;html=1;container=0;dropTarget=0;collapsible=0;recursiveResize=0;outlineConnect=0;portConstraint=eastwest;newEdgeStyle={&quot;edgeStyle&quot;:&quot;elbowEdgeStyle&quot;,&quot;elbow&quot;:&quot;vertical&quot;,&quot;curved&quot;:0,&quot;rounded&quot;:0};" vertex="1" parent="1">
          <mxGeometry x="587" y="137.5" width="100" height="560" as="geometry" />
        </mxCell>
        <mxCell id="iKW5VyOFSuOl_WJNjsYP-20" style="rounded=0;orthogonalLoop=1;jettySize=auto;html=1;elbow=horizontal;" edge="1" parent="1" target="iKW5VyOFSuOl_WJNjsYP-16">
          <mxGeometry relative="1" as="geometry">
            <mxPoint x="268" y="309.5" as="sourcePoint" />
            <mxPoint x="773" y="309.5" as="targetPoint" />
          </mxGeometry>
        </mxCell>
        <mxCell id="iKW5VyOFSuOl_WJNjsYP-21" value="Verify User ID" style="edgeLabel;html=1;align=center;verticalAlign=middle;resizable=0;points=[];" connectable="0" vertex="1" parent="iKW5VyOFSuOl_WJNjsYP-20">
          <mxGeometry x="-0.7767" y="2" relative="1" as="geometry">
            <mxPoint x="45" y="-7" as="offset" />
          </mxGeometry>
        </mxCell>
        <mxCell id="iKW5VyOFSuOl_WJNjsYP-22" style="edgeStyle=elbowEdgeStyle;rounded=0;orthogonalLoop=1;jettySize=auto;html=1;elbow=vertical;curved=0;endArrow=open;endFill=0;" edge="1" parent="1">
          <mxGeometry relative="1" as="geometry">
            <mxPoint x="393" y="337" as="sourcePoint" />
            <mxPoint x="268" y="336.5" as="targetPoint" />
            <Array as="points">
              <mxPoint x="587.9" y="336.5" />
            </Array>
          </mxGeometry>
        </mxCell>
        <mxCell id="iKW5VyOFSuOl_WJNjsYP-23" value="Approve User ID" style="edgeLabel;html=1;align=center;verticalAlign=middle;resizable=0;points=[];" connectable="0" vertex="1" parent="iKW5VyOFSuOl_WJNjsYP-22">
          <mxGeometry x="0.786" y="1" relative="1" as="geometry">
            <mxPoint x="21" y="-6" as="offset" />
          </mxGeometry>
        </mxCell>
        <mxCell id="iKW5VyOFSuOl_WJNjsYP-24" style="edgeStyle=elbowEdgeStyle;rounded=0;orthogonalLoop=1;jettySize=auto;html=1;elbow=vertical;curved=0;dashed=1;endArrow=open;endFill=0;" edge="1" parent="1">
          <mxGeometry relative="1" as="geometry">
            <mxPoint x="258" y="352.5" as="sourcePoint" />
            <mxPoint x="148" y="352.5" as="targetPoint" />
            <Array as="points">
              <mxPoint x="198" y="352.5" />
            </Array>
          </mxGeometry>
        </mxCell>
        <mxCell id="iKW5VyOFSuOl_WJNjsYP-25" value="Grant Access" style="edgeLabel;html=1;align=center;verticalAlign=middle;resizable=0;points=[];" connectable="0" vertex="1" parent="iKW5VyOFSuOl_WJNjsYP-24">
          <mxGeometry x="0.1582" y="-2" relative="1" as="geometry">
            <mxPoint y="-6" as="offset" />
          </mxGeometry>
        </mxCell>
        <mxCell id="iKW5VyOFSuOl_WJNjsYP-26" style="edgeStyle=elbowEdgeStyle;rounded=0;orthogonalLoop=1;jettySize=auto;html=1;elbow=vertical;curved=0;" edge="1" parent="1">
          <mxGeometry relative="1" as="geometry">
            <mxPoint x="143" y="526.5" as="sourcePoint" />
            <mxPoint x="253" y="526.5" as="targetPoint" />
            <Array as="points">
              <mxPoint x="198" y="526.5" />
            </Array>
          </mxGeometry>
        </mxCell>
        <mxCell id="iKW5VyOFSuOl_WJNjsYP-27" value="Check Soil Sample &lt;br&gt;data" style="edgeLabel;html=1;align=center;verticalAlign=middle;resizable=0;points=[];" connectable="0" vertex="1" parent="iKW5VyOFSuOl_WJNjsYP-26">
          <mxGeometry x="-0.0651" relative="1" as="geometry">
            <mxPoint y="-15" as="offset" />
          </mxGeometry>
        </mxCell>
        <mxCell id="iKW5VyOFSuOl_WJNjsYP-28" value="" style="shape=card;whiteSpace=wrap;html=1;flipV=1;rotation=-90;size=19;textDirection=ltr;" vertex="1" parent="1">
          <mxGeometry x="73" y="28.5" width="50" height="109" as="geometry" />
        </mxCell>
        <mxCell id="iKW5VyOFSuOl_WJNjsYP-29" value="Sequence Diagram&lt;br&gt;Soil Sample &lt;br&gt;Collection" style="text;html=1;align=center;verticalAlign=middle;resizable=0;points=[];autosize=1;strokeColor=none;fillColor=none;" vertex="1" parent="1">
          <mxGeometry x="37.5" y="55.5" width="121" height="55" as="geometry" />
        </mxCell>
        <mxCell id="iKW5VyOFSuOl_WJNjsYP-30" value="" style="edgeStyle=orthogonalEdgeStyle;rounded=0;orthogonalLoop=1;jettySize=auto;html=1;elbow=vertical;endArrow=open;endFill=0;" edge="1" parent="1">
          <mxGeometry relative="1" as="geometry">
            <mxPoint x="751" y="305.49" as="sourcePoint" />
            <mxPoint x="750" y="355.49" as="targetPoint" />
            <Array as="points">
              <mxPoint x="751" y="305.49" />
              <mxPoint x="770" y="305.49" />
              <mxPoint x="770" y="355.49" />
            </Array>
          </mxGeometry>
        </mxCell>
        <mxCell id="iKW5VyOFSuOl_WJNjsYP-31" value="Scan Sample&amp;nbsp;" style="edgeLabel;html=1;align=center;verticalAlign=middle;resizable=0;points=[];" connectable="0" vertex="1" parent="iKW5VyOFSuOl_WJNjsYP-30">
          <mxGeometry x="-0.0525" y="1" relative="1" as="geometry">
            <mxPoint x="16" as="offset" />
          </mxGeometry>
        </mxCell>
        <mxCell id="iKW5VyOFSuOl_WJNjsYP-32" value="" style="edgeStyle=orthogonalEdgeStyle;rounded=0;orthogonalLoop=1;jettySize=auto;html=1;elbow=vertical;endArrow=open;endFill=0;" edge="1" parent="1">
          <mxGeometry relative="1" as="geometry">
            <mxPoint x="752" y="223" as="sourcePoint" />
            <mxPoint x="751" y="273" as="targetPoint" />
            <Array as="points">
              <mxPoint x="752" y="223" />
              <mxPoint x="771" y="223" />
              <mxPoint x="771" y="273" />
            </Array>
          </mxGeometry>
        </mxCell>
        <mxCell id="iKW5VyOFSuOl_WJNjsYP-33" value="Scan for Drilling&lt;br&gt;&amp;nbsp;location" style="edgeLabel;html=1;align=center;verticalAlign=middle;resizable=0;points=[];" connectable="0" vertex="1" parent="iKW5VyOFSuOl_WJNjsYP-32">
          <mxGeometry x="-0.166" relative="1" as="geometry">
            <mxPoint x="23" y="7" as="offset" />
          </mxGeometry>
        </mxCell>
        <mxCell id="iKW5VyOFSuOl_WJNjsYP-34" style="edgeStyle=elbowEdgeStyle;rounded=0;orthogonalLoop=1;jettySize=auto;html=1;elbow=vertical;curved=0;endArrow=open;endFill=0;" edge="1" parent="1">
          <mxGeometry relative="1" as="geometry">
            <mxPoint x="632" y="413.36363636363603" as="sourcePoint" />
            <mxPoint x="529" y="413.36363636363603" as="targetPoint" />
          </mxGeometry>
        </mxCell>
        <mxCell id="iKW5VyOFSuOl_WJNjsYP-35" value="Return Sample&lt;br&gt;&amp;nbsp;Data" style="edgeLabel;html=1;align=center;verticalAlign=middle;resizable=0;points=[];" connectable="0" vertex="1" parent="iKW5VyOFSuOl_WJNjsYP-34">
          <mxGeometry x="0.2423" y="-1" relative="1" as="geometry">
            <mxPoint x="12" y="-15" as="offset" />
          </mxGeometry>
        </mxCell>
        <mxCell id="iKW5VyOFSuOl_WJNjsYP-36" value="" style="html=1;points=[];perimeter=orthogonalPerimeter;outlineConnect=0;targetShapes=umlLifeline;portConstraint=eastwest;newEdgeStyle={&quot;edgeStyle&quot;:&quot;elbowEdgeStyle&quot;,&quot;elbow&quot;:&quot;vertical&quot;,&quot;curved&quot;:0,&quot;rounded&quot;:0};" vertex="1" parent="1">
          <mxGeometry x="632" y="255.5" width="10" height="174.5" as="geometry" />
        </mxCell>
        <mxCell id="iKW5VyOFSuOl_WJNjsYP-37" value="" style="edgeStyle=elbowEdgeStyle;rounded=0;orthogonalLoop=1;jettySize=auto;html=1;elbow=horizontal;curved=0;endArrow=open;endFill=0;" edge="1" parent="1">
          <mxGeometry relative="1" as="geometry">
            <mxPoint x="741" y="291.55555555555566" as="sourcePoint" />
            <mxPoint x="642" y="291.55555555555566" as="targetPoint" />
          </mxGeometry>
        </mxCell>
        <mxCell id="iKW5VyOFSuOl_WJNjsYP-38" value="Drill at the location&amp;nbsp;" style="edgeLabel;html=1;align=center;verticalAlign=middle;resizable=0;points=[];" connectable="0" vertex="1" parent="iKW5VyOFSuOl_WJNjsYP-37">
          <mxGeometry x="0.1352" relative="1" as="geometry">
            <mxPoint x="8" y="-10" as="offset" />
          </mxGeometry>
        </mxCell>
        <mxCell id="iKW5VyOFSuOl_WJNjsYP-39" value="" style="edgeStyle=elbowEdgeStyle;rounded=0;orthogonalLoop=1;jettySize=auto;html=1;elbow=vertical;curved=0;endArrow=open;endFill=0;" edge="1" parent="1">
          <mxGeometry relative="1" as="geometry">
            <mxPoint x="741" y="363.35483870967755" as="sourcePoint" />
            <mxPoint x="642.0000000000001" y="363.35483870967755" as="targetPoint" />
          </mxGeometry>
        </mxCell>
        <mxCell id="iKW5VyOFSuOl_WJNjsYP-40" value="Collect and store &lt;br&gt;the Sample" style="edgeLabel;html=1;align=center;verticalAlign=middle;resizable=0;points=[];" connectable="0" vertex="1" parent="iKW5VyOFSuOl_WJNjsYP-39">
          <mxGeometry x="0.2265" y="-3" relative="1" as="geometry">
            <mxPoint x="13" y="-13" as="offset" />
          </mxGeometry>
        </mxCell>
        <mxCell id="iKW5VyOFSuOl_WJNjsYP-41" style="edgeStyle=elbowEdgeStyle;rounded=0;orthogonalLoop=1;jettySize=auto;html=1;elbow=vertical;curved=0;" edge="1" parent="1">
          <mxGeometry relative="1" as="geometry">
            <mxPoint x="529" y="373.81818181818153" as="sourcePoint" />
            <mxPoint x="632" y="373.81818181818153" as="targetPoint" />
          </mxGeometry>
        </mxCell>
        <mxCell id="iKW5VyOFSuOl_WJNjsYP-42" value="Request Sample &lt;br&gt;Data" style="edgeLabel;html=1;align=center;verticalAlign=middle;resizable=0;points=[];" connectable="0" vertex="1" parent="iKW5VyOFSuOl_WJNjsYP-41">
          <mxGeometry x="-0.368" y="-2" relative="1" as="geometry">
            <mxPoint x="16" y="-17" as="offset" />
          </mxGeometry>
        </mxCell>
        <mxCell id="iKW5VyOFSuOl_WJNjsYP-43" value="" style="edgeStyle=orthogonalEdgeStyle;rounded=0;orthogonalLoop=1;jettySize=auto;html=1;elbow=vertical;endArrow=open;endFill=0;" edge="1" parent="1">
          <mxGeometry relative="1" as="geometry">
            <mxPoint x="529" y="436" as="sourcePoint" />
            <mxPoint x="528" y="486" as="targetPoint" />
            <Array as="points">
              <mxPoint x="529" y="436" />
              <mxPoint x="548" y="436" />
              <mxPoint x="548" y="486" />
            </Array>
          </mxGeometry>
        </mxCell>
        <mxCell id="iKW5VyOFSuOl_WJNjsYP-44" value="Analyze the sample" style="edgeLabel;html=1;align=center;verticalAlign=middle;resizable=0;points=[];" connectable="0" vertex="1" parent="iKW5VyOFSuOl_WJNjsYP-43">
          <mxGeometry x="-0.0525" y="1" relative="1" as="geometry">
            <mxPoint x="33" as="offset" />
          </mxGeometry>
        </mxCell>
        <mxCell id="iKW5VyOFSuOl_WJNjsYP-45" value="" style="edgeStyle=elbowEdgeStyle;rounded=0;orthogonalLoop=1;jettySize=auto;html=1;elbow=vertical;curved=0;" edge="1" parent="1">
          <mxGeometry relative="1" as="geometry">
            <mxPoint x="263" y="515.9230769230767" as="sourcePoint" />
            <mxPoint x="394.5000000000001" y="515.5569620253164" as="targetPoint" />
          </mxGeometry>
        </mxCell>
        <mxCell id="iKW5VyOFSuOl_WJNjsYP-46" value="Request Sample data" style="edgeLabel;html=1;align=center;verticalAlign=middle;resizable=0;points=[];" connectable="0" vertex="1" parent="iKW5VyOFSuOl_WJNjsYP-45">
          <mxGeometry x="-0.2643" y="-1" relative="1" as="geometry">
            <mxPoint x="12" y="-10" as="offset" />
          </mxGeometry>
        </mxCell>
        <mxCell id="iKW5VyOFSuOl_WJNjsYP-47" style="edgeStyle=elbowEdgeStyle;rounded=0;orthogonalLoop=1;jettySize=auto;html=1;elbow=vertical;curved=0;endArrow=open;endFill=0;" edge="1" parent="1">
          <mxGeometry relative="1" as="geometry">
            <mxPoint x="518.9999999999999" y="492.8461538461538" as="sourcePoint" />
            <mxPoint x="403.9999999999999" y="492.8461538461538" as="targetPoint" />
          </mxGeometry>
        </mxCell>
        <mxCell id="iKW5VyOFSuOl_WJNjsYP-48" value="Update Database" style="edgeLabel;html=1;align=center;verticalAlign=middle;resizable=0;points=[];" connectable="0" vertex="1" parent="iKW5VyOFSuOl_WJNjsYP-47">
          <mxGeometry x="0.2425" y="-2" relative="1" as="geometry">
            <mxPoint x="12" y="-7" as="offset" />
          </mxGeometry>
        </mxCell>
        <mxCell id="iKW5VyOFSuOl_WJNjsYP-49" value="" style="edgeStyle=elbowEdgeStyle;rounded=0;orthogonalLoop=1;jettySize=auto;html=1;elbow=vertical;curved=0;" edge="1" parent="1" source="iKW5VyOFSuOl_WJNjsYP-16">
          <mxGeometry relative="1" as="geometry">
            <mxPoint x="389" y="551" as="sourcePoint" />
            <mxPoint x="261.9994594594595" y="551.002162162162" as="targetPoint" />
          </mxGeometry>
        </mxCell>
        <mxCell id="iKW5VyOFSuOl_WJNjsYP-50" value="Return Sample Data" style="edgeLabel;html=1;align=center;verticalAlign=middle;resizable=0;points=[];" connectable="0" vertex="1" parent="iKW5VyOFSuOl_WJNjsYP-49">
          <mxGeometry x="0.0959" y="-1" relative="1" as="geometry">
            <mxPoint x="7" y="-9" as="offset" />
          </mxGeometry>
        </mxCell>
        <mxCell id="iKW5VyOFSuOl_WJNjsYP-51" value="" style="edgeStyle=elbowEdgeStyle;rounded=0;orthogonalLoop=1;jettySize=auto;html=1;elbow=vertical;curved=0;" edge="1" parent="1">
          <mxGeometry relative="1" as="geometry">
            <mxPoint x="253" y="560.1538461538462" as="sourcePoint" />
            <mxPoint x="143" y="560.1538461538462" as="targetPoint" />
          </mxGeometry>
        </mxCell>
        <mxCell id="iKW5VyOFSuOl_WJNjsYP-52" value="Show Sample Data" style="edgeLabel;html=1;align=center;verticalAlign=middle;resizable=0;points=[];" connectable="0" vertex="1" parent="iKW5VyOFSuOl_WJNjsYP-51">
          <mxGeometry x="0.2225" y="2" relative="1" as="geometry">
            <mxPoint x="15" y="-10" as="offset" />
          </mxGeometry>
        </mxCell>
      </root>
    </mxGraphModel>
  </diagram>
</mxfile>
